<?xml version="1.0" encoding="utf-8"?>
<!-- Generator: Adobe Illustrator 16.0.3, SVG Export Plug-In . SVG Version: 6.00 Build 0)  -->
<!DOCTYPE svg PUBLIC "-//W3C//DTD SVG 1.1//EN" "http://www.w3.org/Graphics/SVG/1.1/DTD/svg11.dtd">
<svg version="1.1" id="Capa_1" xmlns="http://www.w3.org/2000/svg" xmlns:xlink="http://www.w3.org/1999/xlink" x="0px" y="0px"
	 viewBox="482.5 -19.5 962 1112" enable-background="new 482.5 -19.5 962 1112" xml:space="preserve">

	<path fill="#FFFFFF" d="M956.087,581.934c1.118,0,2.236,0,3.578,0c0.447,0,0.895,0,1.342,0c0.671,0,1.565,0,2.236,0
		c65.529-1.118,118.534-24.154,157.673-68.213c86.104-97.063,71.791-263.458,70.226-279.337
		c-5.591-119.205-61.951-176.235-108.47-202.85C1048.006,11.63,1007.525,0.895,962.348,0h-1.565c-0.224,0-0.671,0-0.895,0h-1.342
		c-24.825,0-73.58,4.025-120.323,30.64c-46.966,26.614-104.22,83.645-109.812,203.744c-1.565,15.879-15.879,182.273,70.226,279.337
		C837.552,557.78,890.557,580.816,956.087,581.934z M788.127,239.975c0-0.671,0.223-1.342,0.223-1.789
		C795.73,77.829,909.567,60.609,958.323,60.609h0.895c0.447,0,1.118,0,1.789,0c60.386,1.342,163.04,25.943,169.974,177.577
		c0,0.671,0,1.342,0.223,1.789c0.225,1.565,15.88,153.646-55.24,233.713c-28.18,31.758-65.753,47.414-115.18,47.861
		c-0.447,0-0.671,0-1.118,0l0,0c-0.447,0-0.671,0-1.118,0c-49.203-0.447-86.999-16.104-114.955-47.861
		C772.694,394.069,787.902,241.317,788.127,239.975z"/>
	<path fill="#FFFFFF" d="M1419.263,857.916c0-0.224,0-0.447,0-0.671c0-1.789-0.225-3.578-0.225-5.591
		c-1.342-44.282-4.249-147.832-101.313-180.932c-0.671-0.224-1.565-0.447-2.236-0.671c-100.865-25.72-184.734-83.869-185.629-84.54
		c-13.643-9.616-32.429-6.262-42.046,7.381c-9.616,13.643-6.262,32.429,7.381,42.046c3.802,2.684,92.814,64.635,204.191,93.262
		c52.11,18.563,57.925,74.251,59.49,125.243c0,2.013,0,3.802,0.224,5.591c0.224,20.129-1.118,51.216-4.696,69.107
		c-36.231,20.576-178.248,91.696-394.293,91.696c-215.15,0-358.062-71.344-394.517-91.92c-3.578-17.892-5.144-48.979-4.696-69.107
		c0-1.789,0.224-3.578,0.224-5.591c1.565-50.992,7.38-106.681,59.49-125.243c111.377-28.627,200.39-90.802,204.191-93.262
		c13.643-9.617,16.998-28.403,7.381-42.046s-28.403-16.997-42.046-7.381c-0.895,0.671-84.315,58.82-185.629,84.54
		c-0.895,0.224-1.565,0.447-2.236,0.671c-97.063,33.323-99.971,136.873-101.313,180.932c0,2.013,0,3.802-0.223,5.591
		c0,0.224,0,0.447,0,0.671c-0.225,11.63-0.447,71.344,11.405,101.313c2.237,5.814,6.263,10.734,11.63,14.09
		c6.71,4.473,167.513,106.903,436.563,106.903s429.854-102.654,436.563-106.903c5.145-3.355,9.394-8.275,11.63-14.09
		C1419.711,929.26,1419.486,869.546,1419.263,857.916z"/>
</svg>
