<?xml version="1.0" encoding="utf-8"?>
<!-- Generator: Adobe Illustrator 16.0.3, SVG Export Plug-In . SVG Version: 6.00 Build 0)  -->
<!DOCTYPE svg PUBLIC "-//W3C//DTD SVG 1.1//EN" "http://www.w3.org/Graphics/SVG/1.1/DTD/svg11.dtd">
<svg version="1.1" id="Capa_1" xmlns="http://www.w3.org/2000/svg" xmlns:xlink="http://www.w3.org/1999/xlink" x="0px" y="0px"
	 viewBox="0 0 512 512" enable-background="new 0 0 512 512" xml:space="preserve">

	<path fill="transparent" class="full" d="M68.308,283.934c-23.256-23.447-36.059-54.526-36.059-87.572c0-33.22,12.937-64.452,36.427-87.942
		S123.4,71.992,156.62,71.992s64.451,12.937,87.941,36.427l8.839,8.839l8.839-8.839c23.491-23.49,54.723-36.427,87.943-36.427
		c33.22,0,64.451,12.937,87.941,36.427c23.49,23.49,36.428,54.722,36.428,87.942s-12.938,64.452-36.428,87.942L253.4,469.028
		L68.308,283.934z"/>
	<path fill="#ffffff" class="stroke" d="M156.608,59.492l0.009,25c29.885,0.002,57.979,11.639,79.105,32.766l17.678,17.678l17.678-17.678
		c21.13-21.129,49.223-32.766,79.104-32.766c29.881,0,57.974,11.636,79.103,32.766c21.13,21.129,32.766,49.222,32.766,79.104
		s-11.636,57.974-32.766,79.103L253.4,451.35L77.569,275.514l-0.822-0.826l-0.007-0.007c-20.637-21.037-31.99-48.806-31.99-78.319
		c0-29.881,11.637-57.974,32.766-79.104c21.131-21.131,49.22-32.767,79.092-32.766L156.608,59.492 M350.182,59.492
		c-35.032,0-70.054,13.36-96.782,40.088c-26.723-26.723-61.757-40.085-96.78-40.088c-35.032-0.003-70.053,13.36-96.782,40.088
		c-53.451,53.451-53.451,140.112,0,193.562c0.012,0.01,0.023,0.02,0.035,0.031L253.4,486.705l193.563-193.563
		c53.451-53.45,53.451-140.111,0-193.562C420.24,72.858,385.206,59.492,350.182,59.492L350.182,59.492z"/>

</svg>


