<?xml version="1.0" encoding="utf-8"?>
<!-- Generator: Adobe Illustrator 16.0.3, SVG Export Plug-In . SVG Version: 6.00 Build 0)  -->
<!DOCTYPE svg PUBLIC "-//W3C//DTD SVG 1.1//EN" "http://www.w3.org/Graphics/SVG/1.1/DTD/svg11.dtd">
<svg version="1.1" id="Capa_1" xmlns="http://www.w3.org/2000/svg" xmlns:xlink="http://www.w3.org/1999/xlink" x="0px" y="0px"
	 width="1128px" height="1138px" viewBox="400.5 -33.5 1128 1138" enable-background="new 400.5 -33.5 1128 1138"
	 xml:space="preserve">
<path fill="#FFFFFF" d="M1183.449,0c-174.551,0-316.553,142.001-316.553,316.551c0,59.493,16.797,114.983,45.453,162.578
	L430.912,960.567c-14.543,14.543-14.543,38.116,0,52.659c7.281,7.281,16.796,10.912,26.33,10.912
	c9.533,0,19.049-3.631,26.329-10.912l66.774-66.773l122.636,122.636c7.28,7.28,16.796,10.912,26.329,10.912
	c9.534,0,19.049-3.632,26.33-10.912c14.543-14.543,14.543-38.117,0-52.659L603.005,893.793l40.444-40.444l85.395,85.395
	c7.28,7.28,16.795,10.911,26.329,10.911s19.049-3.631,26.33-10.911c14.542-14.543,14.542-38.117,0-52.659l-85.395-85.395
	l40.444-40.444l122.636,122.636c7.28,7.28,16.796,10.912,26.329,10.912c9.534,0,19.049-3.632,26.33-10.912
	c14.543-14.543,14.543-38.116,0-52.659L789.211,707.586l168.983-168.983c57.444,58.265,137.16,94.5,225.255,94.5
	c174.55,0,316.551-142.001,316.551-316.552C1500,142.001,1357.999,0,1183.449,0z M1183.449,558.62
	c-133.474,0-242.069-108.596-242.069-242.069c0-133.473,108.596-242.068,242.069-242.068c133.473,0,242.068,108.596,242.068,242.068
	C1425.517,450.025,1316.922,558.62,1183.449,558.62z"/>
</svg>
