<!--?xml version="1.0" encoding="utf-8"?-->
<!-- Generator: Adobe Illustrator 16.0.3, SVG Export Plug-In . SVG Version: 6.00 Build 0)  -->

<svg version="1.1" id="Vrstva_1" xmlns="http://www.w3.org/2000/svg" xmlns:xlink="http://www.w3.org/1999/xlink" x="0px" y="0px" width="146px" height="64.333px" viewBox="1.667 -9.667 146 64.333" enable-background="new 1.667 -9.667 146 64.333" xml:space="preserve" style="">
<path fill="none" stroke="#FFFFFF" stroke-width="4" d="M27.923-2.353c-8.605,0-15.581,6.977-15.581,15.582v34.124h109.069
	c8.604,0,15.58-6.976,15.58-15.58V-2.353H27.923z" class="ZBMmwXII_0"></path>
<g>
	<path fill="#FFFFFF" d="M37.068,28.714l-0.018-8.101l-2.991,6.854h-2.066L29,20.614v8.101h-2.83V16.231h3.472l3.383,7.427
		l3.384-7.427h3.454v12.483H37.068z" class="ZBMmwXII_1"></path>
	<path fill="#FFFFFF" d="M58.609,22.466c0,3.631-2.885,6.391-6.749,6.391c-3.847,0-6.731-2.742-6.731-6.391
		c0-3.635,2.885-6.323,6.731-6.323C55.724,16.143,58.609,18.85,58.609,22.466z M48.37,22.482c0,2.102,1.621,3.723,3.525,3.723
		c1.924,0,3.455-1.621,3.455-3.723s-1.531-3.685-3.455-3.685C49.972,18.797,48.37,20.38,48.37,22.482z" class="ZBMmwXII_2"></path>
	<path fill="#FFFFFF" d="M67.257,28.714L62.414,16.25h3.384l3.188,9.172l3.188-9.172h3.259l-4.897,12.465H67.257z" class="ZBMmwXII_3"></path>
	<path fill="#FFFFFF" d="M80.231,28.714V16.25H83.4v12.465H80.231z" class="ZBMmwXII_4"></path>
	<path fill="#FFFFFF" d="M92.63,18.743v2.475h5.948v2.495H92.63v2.508h6.784v2.494H89.46V16.25h9.758v2.493H92.63z" class="ZBMmwXII_5"></path>
	<path fill="#FFFFFF" d="M115.791,28.714l-2.315-8.617l-2.351,8.617h-3.275L103.77,16.25h3.384l2.439,9.172l2.386-9.172h3.099
		l2.44,9.172l2.403-9.172h3.241l-4.113,12.465H115.791z" class="ZBMmwXII_6"></path>
</g>
<style>.ZBMmwXII_0{
    stroke-dasharray:336 338;
    stroke-dashoffset:337;
    animation:ZBMmwXII_draw 1000ms linear 1000ms forwards;
}

@keyframes ZBMmwXII_draw{
    100%{
        stroke-dashoffset:0;
    }
}
</style></svg>
