<?xml version="1.0" encoding="utf-8"?>
<!-- Generator: Adobe Illustrator 16.0.3, SVG Export Plug-In . SVG Version: 6.00 Build 0)  -->
<!DOCTYPE svg PUBLIC "-//W3C//DTD SVG 1.1//EN" "http://www.w3.org/Graphics/SVG/1.1/DTD/svg11.dtd">
<svg version="1.1" id="Capa_1" xmlns="http://www.w3.org/2000/svg" xmlns:xlink="http://www.w3.org/1999/xlink" x="0px" y="0px"
	 viewBox="440.267 80.274 969.097 963.097"
	 enable-background="new 440.267 80.274 969.097 963.097" xml:space="preserve">

	<path fill="#FFFFFF" d="M923.182,478.512c-45.409,0-82.228,36.817-82.228,82.227s36.818,82.228,82.228,82.228
		s82.227-36.818,82.227-82.228S968.592,478.512,923.182,478.512z M924.409,611.057c-28.227,0-50.317-22.091-50.317-50.318
		c0-28.227,22.091-50.318,50.317-50.318c28.228,0,50.318,22.092,50.318,50.318C974.727,588.966,951.409,611.057,924.409,611.057z"
		/>

	<path fill="#FFFFFF" d="M924.409,177.83c-65.045,0-117.817,52.772-117.817,117.817c-1.228,63.818,51.545,117.818,117.817,117.818
		c65.046,0,117.818-52.772,117.818-117.818C1042.227,230.603,989.455,177.83,924.409,177.83z M924.409,382.784
		c-47.863,0-87.136-39.272-87.136-87.137c0-49.091,39.272-87.136,87.136-87.136c47.864,0,87.137,39.272,87.137,87.136
		C1011.546,343.512,972.273,382.784,924.409,382.784z"/>

	<path fill="#FFFFFF" d="M1292.592,451.512c-14.728-50.318-61.364-84.682-112.909-84.682c-11.046,0-22.091,1.227-33.137,4.908
		c-62.591,18.409-98.182,84.682-79.772,147.273c14.727,50.317,61.363,84.682,112.909,84.682c11.045,0,22.091-1.228,33.136-4.909
		C1275.409,580.375,1311,514.103,1292.592,451.512z M1203,568.103c-8.591,2.454-15.954,3.682-24.545,3.682
		c-38.046,0-72.409-25.772-83.455-62.591c-13.5-45.409,12.273-94.5,58.909-108c8.591-2.455,15.955-3.682,24.546-3.682
		c38.045,0,72.409,25.772,83.454,62.591C1275.409,506.739,1249.636,554.603,1203,568.103z"/>

	<path fill="#FFFFFF" d="M1173.546,710.466c-22.091-31.909-58.909-50.318-96.954-50.318c-24.546,0-47.864,7.364-67.5,22.091
		c-52.773,38.046-66.273,111.682-28.228,164.455c22.091,31.908,58.909,50.317,96.954,50.317c24.546,0,47.864-7.363,67.5-22.091
		C1198.092,836.875,1211.592,763.239,1173.546,710.466z M1162.5,792.694c-3.682,23.318-17.182,42.954-35.591,56.454
		c-14.727,9.818-31.909,15.955-50.317,15.955c-28.228,0-55.228-13.5-71.183-36.818c-27-39.273-18.409-93.273,20.864-121.5
		c14.727-9.818,31.909-15.955,50.318-15.955c28.227,0,55.227,13.5,71.182,36.818C1161.273,747.284,1166.182,770.603,1162.5,792.694
		z"/>

	<path fill="#FFFFFF" d="M836.046,679.784c-20.863-14.728-44.182-23.318-69.954-23.318c-38.046,0-73.637,18.409-95.728,47.863
		c-38.046,52.773-27,126.409,25.772,165.682c20.863,14.728,44.182,23.318,69.955,23.318c38.045,0,73.636-18.409,95.727-47.863
		C901.092,792.694,888.818,717.829,836.046,679.784z M837.273,827.057c-15.955,22.091-42.955,35.591-69.955,35.591
		c-18.409,0-36.818-6.136-51.545-17.182c-38.046-28.228-46.637-82.228-18.409-121.5c15.954-22.091,42.954-35.591,69.954-35.591
		c18.409,0,36.818,6.136,51.546,17.182C856.909,733.784,865.5,787.784,837.273,827.057z"/>

	<path fill="#FFFFFF" d="M704.727,370.512c-11.045-3.682-23.318-4.909-34.363-4.909c-52.772,0-98.182,33.136-112.909,83.454
		C537.818,511.648,573.41,577.92,636,596.329c11.046,3.682,23.318,4.909,34.364,4.909c51.546,0,96.954-34.363,112.909-83.454
		C802.909,455.194,767.318,388.921,704.727,370.512z M753.818,507.966c-11.045,36.818-44.182,61.363-83.454,61.363
		c-8.591,0-17.182-1.227-25.772-3.682c-46.637-13.5-72.409-62.591-57.683-108c11.046-36.818,44.183-61.363,83.455-61.363
		c8.591,0,17.182,1.228,25.772,3.682C741.546,413.466,767.318,462.557,753.818,507.966z"/>

	<path fill="#FFFFFF" d="M1247.181,868.784c76.092-79.772,123.955-189,123.955-308.046
		c-1.227-246.682-201.272-446.727-446.728-446.727c-246.682,0-446.727,200.045-446.727,446.727s200.045,446.728,446.727,446.728
		c23.318,0,45.409-1.228,67.5-4.909c11.046-1.228,35.091-3.545,89.591-24.545c50.318-18.409,95.728-46.637,135-81
		C1226.5,887.512,1240,877.512,1247.181,868.784z M924.409,975.557c-229.5,0-414.817-186.546-414.817-414.818
		s186.545-414.817,414.817-414.817c228.273,0,414.818,186.545,414.818,414.817S1152.682,975.557,924.409,975.557z"/>
</svg>
